<?xml version="1.0" encoding="UTF-8"?>
<svg xmlns="http://www.w3.org/2000/svg" version="1.1" width="200" height="200" viewBox="0 0 200 200"><rect x="0" y="0" width="200" height="200" fill="#ffffff"/><g transform="scale(6.897)"><g transform="translate(0,0)"><path fill-rule="evenodd" d="M10 0L10 2L11 2L11 0ZM12 0L12 1L14 1L14 0ZM16 0L16 1L15 1L15 2L14 2L14 3L13 3L13 2L12 2L12 4L13 4L13 5L11 5L11 6L10 6L10 4L11 4L11 3L8 3L8 4L9 4L9 5L8 5L8 7L9 7L9 8L6 8L6 9L5 9L5 8L0 8L0 12L1 12L1 13L0 13L0 16L1 16L1 17L0 17L0 21L1 21L1 17L2 17L2 18L3 18L3 19L2 19L2 21L5 21L5 17L2 17L2 16L6 16L6 17L7 17L7 18L6 18L6 19L7 19L7 20L6 20L6 21L7 21L7 20L9 20L9 19L10 19L10 18L9 18L9 19L7 19L7 18L8 18L8 17L7 17L7 16L8 16L8 15L9 15L9 14L10 14L10 16L9 16L9 17L10 17L10 16L11 16L11 17L12 17L12 18L13 18L13 17L16 17L16 18L14 18L14 19L15 19L15 20L13 20L13 19L12 19L12 21L13 21L13 22L11 22L11 25L10 25L10 22L9 22L9 21L8 21L8 23L9 23L9 24L8 24L8 29L11 29L11 27L10 27L10 28L9 28L9 26L11 26L11 25L12 25L12 26L13 26L13 27L16 27L16 28L17 28L17 29L18 29L18 28L19 28L19 27L20 27L20 28L22 28L22 27L23 27L23 28L25 28L25 29L27 29L27 28L28 28L28 26L29 26L29 24L28 24L28 23L27 23L27 22L29 22L29 20L28 20L28 19L27 19L27 16L28 16L28 15L27 15L27 12L28 12L28 11L27 11L27 12L25 12L25 9L26 9L26 8L25 8L25 9L24 9L24 8L23 8L23 9L22 9L22 8L21 8L21 4L20 4L20 3L19 3L19 2L18 2L18 1L20 1L20 2L21 2L21 0L18 0L18 1L17 1L17 0ZM8 1L8 2L9 2L9 1ZM16 1L16 2L15 2L15 3L18 3L18 4L19 4L19 3L18 3L18 2L17 2L17 1ZM14 4L14 5L13 5L13 7L12 7L12 6L11 6L11 7L12 7L12 9L11 9L11 8L10 8L10 9L9 9L9 10L8 10L8 11L9 11L9 12L8 12L8 13L6 13L6 12L7 12L7 11L6 11L6 10L7 10L7 9L6 9L6 10L5 10L5 9L4 9L4 10L3 10L3 9L2 9L2 13L6 13L6 14L5 14L5 15L6 15L6 16L7 16L7 15L6 15L6 14L8 14L8 13L9 13L9 12L11 12L11 13L10 13L10 14L13 14L13 13L14 13L14 10L16 10L16 9L13 9L13 8L14 8L14 5L16 5L16 6L15 6L15 7L16 7L16 8L18 8L18 9L17 9L17 10L18 10L18 9L20 9L20 8L19 8L19 7L20 7L20 5L19 5L19 7L18 7L18 5L16 5L16 4ZM9 6L9 7L10 7L10 6ZM16 6L16 7L17 7L17 6ZM27 8L27 9L28 9L28 10L29 10L29 9L28 9L28 8ZM10 9L10 11L11 11L11 9ZM12 9L12 10L13 10L13 9ZM21 9L21 11L23 11L23 12L22 12L22 13L21 13L21 12L20 12L20 14L19 14L19 15L18 15L18 13L19 13L19 11L20 11L20 10L19 10L19 11L17 11L17 12L16 12L16 11L15 11L15 14L17 14L17 16L16 16L16 17L17 17L17 20L18 20L18 21L17 21L17 24L16 24L16 23L15 23L15 22L16 22L16 21L14 21L14 22L13 22L13 23L12 23L12 24L14 24L14 23L15 23L15 24L16 24L16 25L14 25L14 26L16 26L16 25L17 25L17 24L18 24L18 25L19 25L19 26L17 26L17 28L18 28L18 27L19 27L19 26L20 26L20 23L18 23L18 21L20 21L20 20L18 20L18 19L20 19L20 18L21 18L21 19L22 19L22 18L21 18L21 17L20 17L20 16L21 16L21 15L20 15L20 14L22 14L22 13L23 13L23 15L22 15L22 17L23 17L23 20L24 20L24 19L25 19L25 21L26 21L26 20L27 20L27 19L25 19L25 18L24 18L24 17L26 17L26 16L27 16L27 15L26 15L26 13L25 13L25 12L24 12L24 11L23 11L23 10L24 10L24 9L23 9L23 10L22 10L22 9ZM4 11L4 12L5 12L5 11ZM12 11L12 13L13 13L13 11ZM17 12L17 13L18 13L18 12ZM23 12L23 13L24 13L24 14L25 14L25 13L24 13L24 12ZM28 13L28 14L29 14L29 13ZM1 14L1 15L2 15L2 14ZM3 14L3 15L4 15L4 14ZM12 15L12 17L13 17L13 16L14 16L14 15ZM19 15L19 16L20 16L20 15ZM23 15L23 16L24 16L24 15ZM17 16L17 17L18 17L18 16ZM19 17L19 18L20 18L20 17ZM28 17L28 18L29 18L29 17ZM3 19L3 20L4 20L4 19ZM10 20L10 21L11 21L11 20ZM21 21L21 24L24 24L24 21ZM22 22L22 23L23 23L23 22ZM25 23L25 24L27 24L27 25L24 25L24 26L23 26L23 25L22 25L22 26L21 26L21 27L22 27L22 26L23 26L23 27L24 27L24 26L26 26L26 27L25 27L25 28L27 28L27 25L28 25L28 24L27 24L27 23ZM12 28L12 29L15 29L15 28ZM0 0L0 7L7 7L7 0ZM1 1L1 6L6 6L6 1ZM2 2L2 5L5 5L5 2ZM22 0L22 7L29 7L29 0ZM23 1L23 6L28 6L28 1ZM24 2L24 5L27 5L27 2ZM0 22L0 29L7 29L7 22ZM1 23L1 28L6 28L6 23ZM2 24L2 27L5 27L5 24Z" fill="#000000"/></g></g></svg>
