<?xml version="1.0" encoding="UTF-8"?>
<svg xmlns="http://www.w3.org/2000/svg" version="1.1" width="100" height="100" viewBox="0 0 100 100"><rect x="0" y="0" width="100" height="100" fill="#ffffff" fill-opacity="0.25"/><g transform="scale(3.448)"><g transform="translate(0,0)"><g><g transform="translate(3.5,3.5)"><path fill-rule="evenodd" d="M-3.5 -3.5L3.5 -3.5L3.5 3.5L-3.5 3.5ZM-2.5 -2.5L-2.5 2.5L2.5 2.5L2.5 -2.5Z" fill="#000000"/><path fill-rule="evenodd" d="M-1.5 -1.5L1.5 -1.5L1.5 1.5L-1.5 1.5Z" fill="#000000"/></g></g><g><g transform="translate(25.5,3.5)"><g transform="rotate(90)"><path fill-rule="evenodd" d="M-3.5 -3.5L3.5 -3.5L3.5 3.5L-3.5 3.5ZM-2.5 -2.5L-2.5 2.5L2.5 2.5L2.5 -2.5Z" fill="#000000"/><path fill-rule="evenodd" d="M-1.5 -1.5L1.5 -1.5L1.5 1.5L-1.5 1.5Z" fill="#000000"/></g></g></g><g><g transform="translate(3.5,25.5)"><g transform="rotate(-90)"><path fill-rule="evenodd" d="M-3.5 -3.5L3.5 -3.5L3.5 3.5L-3.5 3.5ZM-2.5 -2.5L-2.5 2.5L2.5 2.5L2.5 -2.5Z" fill="#000000"/><path fill-rule="evenodd" d="M-1.5 -1.5L1.5 -1.5L1.5 1.5L-1.5 1.5Z" fill="#000000"/></g></g></g><path fill-rule="evenodd" d="M9 0L9 1L8 1L8 2L9 2L9 3L8 3L8 4L10 4L10 7L11 7L11 4L12 4L12 5L13 5L13 6L12 6L12 9L14 9L14 10L11 10L11 11L10 11L10 9L11 9L11 8L6 8L6 9L5 9L5 8L0 8L0 10L1 10L1 11L0 11L0 12L1 12L1 14L2 14L2 15L3 15L3 16L2 16L2 18L4 18L4 17L5 17L5 19L2 19L2 21L3 21L3 20L4 20L4 21L5 21L5 20L6 20L6 21L8 21L8 23L9 23L9 21L10 21L10 20L11 20L11 21L12 21L12 22L13 22L13 23L12 23L12 25L13 25L13 24L14 24L14 25L16 25L16 26L15 26L15 27L14 27L14 28L15 28L15 27L16 27L16 28L17 28L17 29L18 29L18 28L19 28L19 27L20 27L20 28L22 28L22 27L23 27L23 28L25 28L25 29L27 29L27 28L28 28L28 26L29 26L29 24L25 24L25 23L27 23L27 22L29 22L29 20L28 20L28 19L27 19L27 16L28 16L28 15L27 15L27 12L28 12L28 11L27 11L27 12L25 12L25 9L26 9L26 8L25 8L25 9L24 9L24 8L23 8L23 9L22 9L22 8L21 8L21 4L20 4L20 3L19 3L19 2L18 2L18 1L20 1L20 2L21 2L21 0L18 0L18 1L17 1L17 0L16 0L16 1L11 1L11 2L10 2L10 0ZM12 2L12 4L13 4L13 5L16 5L16 4L17 4L17 3L18 3L18 4L19 4L19 3L18 3L18 2L16 2L16 4L13 4L13 3L15 3L15 2ZM10 3L10 4L11 4L11 3ZM8 5L8 7L9 7L9 5ZM17 5L17 7L16 7L16 6L15 6L15 7L14 7L14 6L13 6L13 8L18 8L18 9L17 9L17 10L18 10L18 9L20 9L20 8L19 8L19 7L20 7L20 5L19 5L19 7L18 7L18 5ZM27 8L27 9L28 9L28 10L29 10L29 9L28 9L28 8ZM1 9L1 10L3 10L3 11L2 11L2 14L3 14L3 13L4 13L4 14L5 14L5 13L4 13L4 12L5 12L5 11L6 11L6 12L7 12L7 13L6 13L6 14L7 14L7 15L4 15L4 16L3 16L3 17L4 17L4 16L7 16L7 17L6 17L6 18L8 18L8 19L9 19L9 20L10 20L10 19L9 19L9 17L11 17L11 18L13 18L13 17L12 17L12 15L13 15L13 16L14 16L14 15L13 15L13 14L12 14L12 13L13 13L13 12L15 12L15 13L14 13L14 14L17 14L17 16L16 16L16 17L14 17L14 18L16 18L16 17L17 17L17 20L18 20L18 21L17 21L17 24L16 24L16 23L14 23L14 24L16 24L16 25L17 25L17 24L18 24L18 25L19 25L19 26L17 26L17 28L18 28L18 27L19 27L19 26L20 26L20 23L18 23L18 21L20 21L20 20L18 20L18 19L20 19L20 18L21 18L21 19L22 19L22 18L21 18L21 17L20 17L20 16L21 16L21 15L20 15L20 14L22 14L22 13L23 13L23 15L22 15L22 17L23 17L23 20L24 20L24 19L25 19L25 21L26 21L26 20L27 20L27 19L25 19L25 18L24 18L24 17L26 17L26 16L27 16L27 15L26 15L26 13L25 13L25 12L24 12L24 11L23 11L23 10L24 10L24 9L23 9L23 10L22 10L22 9L21 9L21 11L23 11L23 12L22 12L22 13L21 13L21 12L20 12L20 14L19 14L19 15L18 15L18 13L19 13L19 11L20 11L20 10L19 10L19 11L17 11L17 12L16 12L16 11L15 11L15 10L16 10L16 9L15 9L15 10L14 10L14 11L12 11L12 13L11 13L11 12L10 12L10 13L9 13L9 11L8 11L8 12L7 12L7 11L6 11L6 10L8 10L8 9L6 9L6 10L3 10L3 9ZM17 12L17 13L18 13L18 12ZM23 12L23 13L24 13L24 14L25 14L25 13L24 13L24 12ZM10 13L10 15L9 15L9 16L8 16L8 15L7 15L7 16L8 16L8 17L9 17L9 16L10 16L10 15L11 15L11 13ZM28 13L28 14L29 14L29 13ZM19 15L19 16L20 16L20 15ZM23 15L23 16L24 16L24 15ZM0 16L0 21L1 21L1 16ZM17 16L17 17L18 17L18 16ZM19 17L19 18L20 18L20 17ZM28 17L28 18L29 18L29 17ZM6 19L6 20L7 20L7 19ZM12 19L12 21L14 21L14 22L16 22L16 21L15 21L15 19ZM21 21L21 24L24 24L24 21ZM10 22L10 23L11 23L11 22ZM22 22L22 23L23 23L23 22ZM8 24L8 29L12 29L12 27L13 27L13 26L11 26L11 27L10 27L10 26L9 26L9 25L11 25L11 24ZM22 25L22 26L21 26L21 27L22 27L22 26L23 26L23 27L24 27L24 26L26 26L26 27L25 27L25 28L27 28L27 25L24 25L24 26L23 26L23 25Z" fill="#000000"/></g></g></svg>
