<?xml version="1.0" encoding="UTF-8"?>
<svg xmlns="http://www.w3.org/2000/svg" version="1.1" width="200" height="200" viewBox="0 0 200 200"><rect x="0" y="0" width="200" height="200" fill="#ffffff"/><g transform="scale(6.897)"><g transform="translate(0,0)"><path fill-rule="evenodd" d="M8 0L8 1L9 1L9 2L8 2L8 5L9 5L9 4L11 4L11 5L10 5L10 10L9 10L9 11L7 11L7 10L8 10L8 9L9 9L9 8L8 8L8 9L7 9L7 8L6 8L6 9L4 9L4 8L0 8L0 9L2 9L2 11L1 11L1 12L0 12L0 16L1 16L1 17L2 17L2 18L4 18L4 17L8 17L8 14L10 14L10 15L9 15L9 19L8 19L8 18L6 18L6 19L3 19L3 21L5 21L5 20L6 20L6 21L8 21L8 22L9 22L9 23L10 23L10 25L8 25L8 29L10 29L10 28L9 28L9 27L11 27L11 29L14 29L14 28L15 28L15 29L16 29L16 28L17 28L17 27L16 27L16 28L15 28L15 27L14 27L14 26L17 26L17 25L18 25L18 24L20 24L20 25L24 25L24 26L25 26L25 25L26 25L26 26L27 26L27 24L26 24L26 22L27 22L27 23L28 23L28 22L29 22L29 21L27 21L27 18L28 18L28 15L29 15L29 13L27 13L27 12L26 12L26 11L28 11L28 12L29 12L29 11L28 11L28 10L29 10L29 8L28 8L28 10L26 10L26 11L25 11L25 13L27 13L27 14L24 14L24 12L23 12L23 13L22 13L22 12L21 12L21 11L22 11L22 10L23 10L23 9L22 9L22 8L20 8L20 7L21 7L21 5L20 5L20 2L19 2L19 1L21 1L21 0L18 0L18 2L19 2L19 6L18 6L18 7L17 7L17 4L18 4L18 3L17 3L17 4L16 4L16 3L15 3L15 0L14 0L14 1L13 1L13 0L12 0L12 1L11 1L11 0L10 0L10 1L9 1L9 0ZM16 0L16 2L17 2L17 0ZM11 2L11 4L12 4L12 3L13 3L13 2ZM13 4L13 5L12 5L12 6L11 6L11 8L12 8L12 6L13 6L13 11L11 11L11 13L10 13L10 14L11 14L11 13L12 13L12 12L13 12L13 11L14 11L14 10L15 10L15 11L16 11L16 12L15 12L15 13L13 13L13 14L12 14L12 16L10 16L10 18L11 18L11 19L10 19L10 20L11 20L11 21L12 21L12 23L11 23L11 22L10 22L10 21L9 21L9 22L10 22L10 23L11 23L11 27L12 27L12 23L13 23L13 22L14 22L14 24L15 24L15 23L16 23L16 25L17 25L17 24L18 24L18 23L19 23L19 22L18 22L18 21L17 21L17 20L16 20L16 19L15 19L15 21L14 21L14 18L15 18L15 17L16 17L16 18L17 18L17 19L18 19L18 20L19 20L19 19L20 19L20 20L22 20L22 18L23 18L23 19L24 19L24 20L26 20L26 19L25 19L25 18L26 18L26 17L27 17L27 15L24 15L24 14L21 14L21 15L20 15L20 16L19 16L19 12L20 12L20 13L21 13L21 12L20 12L20 11L21 11L21 10L22 10L22 9L21 9L21 10L18 10L18 9L17 9L17 8L16 8L16 5L15 5L15 4ZM13 5L13 6L14 6L14 9L15 9L15 5ZM8 6L8 7L9 7L9 6ZM19 6L19 7L20 7L20 6ZM24 8L24 10L25 10L25 9L27 9L27 8ZM3 9L3 12L1 12L1 13L3 13L3 16L4 16L4 15L5 15L5 16L7 16L7 15L6 15L6 14L8 14L8 13L9 13L9 12L8 12L8 13L6 13L6 14L5 14L5 12L7 12L7 11L6 11L6 10L7 10L7 9L6 9L6 10L5 10L5 12L4 12L4 9ZM11 9L11 10L12 10L12 9ZM16 9L16 11L17 11L17 9ZM18 11L18 12L17 12L17 14L18 14L18 12L19 12L19 11ZM3 12L3 13L4 13L4 12ZM15 13L15 14L16 14L16 13ZM1 14L1 16L2 16L2 14ZM14 15L14 16L13 16L13 18L12 18L12 20L13 20L13 18L14 18L14 16L17 16L17 15ZM21 15L21 16L22 16L22 15ZM23 15L23 17L25 17L25 16L24 16L24 15ZM18 16L18 18L19 18L19 16ZM0 18L0 19L1 19L1 18ZM20 18L20 19L21 19L21 18ZM6 19L6 20L8 20L8 19ZM1 20L1 21L2 21L2 20ZM16 21L16 23L18 23L18 22L17 22L17 21ZM21 21L21 24L24 24L24 21ZM22 22L22 23L23 23L23 22ZM28 24L28 27L27 27L27 29L28 29L28 27L29 27L29 24ZM13 25L13 26L14 26L14 25ZM18 26L18 29L19 29L19 26ZM20 26L20 29L22 29L22 26ZM13 27L13 28L14 28L14 27ZM23 27L23 29L26 29L26 28L25 28L25 27ZM0 0L0 7L7 7L7 0ZM1 1L1 6L6 6L6 1ZM2 2L2 5L5 5L5 2ZM22 0L22 7L29 7L29 0ZM23 1L23 6L28 6L28 1ZM24 2L24 5L27 5L27 2ZM0 22L0 29L7 29L7 22ZM1 23L1 28L6 28L6 23ZM2 24L2 27L5 27L5 24Z" fill="#000000"/></g></g></svg>
